<svg id="Cage_Dev_Ops" data-name="Cage Dev Ops" xmlns="http://www.w3.org/2000/svg" viewBox="0 0 352 84.5"><defs><style>.cls-1{font-size:64px;fill:#fff;stroke:#444;font-family:ArchivoNarrow-BoldItalic, Archivo Narrow;font-weight:700;font-style:italic;letter-spacing:0.01em;}.cls-1,.cls-2{stroke-miterlimit:10;}.cls-2{fill:#f16522;stroke:#3f3f3f;}</style></defs><title>logo</title><text class="cls-1" transform="translate(85.71 62.53)">Cage Data</text><path class="cls-2" d="M28.46,59.72h7.47v-42H28.46c-5.16,0-9.34,4.7-9.34,10.5v21C19.12,55,23.3,59.72,28.46,59.72Z"/><rect class="cls-2" x="41.03" y="17.71" width="0.98" height="42.02"/><path class="cls-2" d="M11.64,52.73v-28c0-7.74,6.69-14,14.94-14H40.42A21.21,21.21,0,0,0,24.94,3.78C12.46,3.78,2.33,15.22,2.33,29.34A38.17,38.17,0,0,0,4,40.27a43.49,43.49,0,0,0,1.77,4.88A56,56,0,0,0,12.06,56,13.2,13.2,0,0,1,11.64,52.73Z"/><path class="cls-2" d="M54.61,17.71l-7.47,0L47,59.7l7.47,0c5.16,0,9.35-4.67,9.38-10.47l.08-21C63.93,22.44,59.76,17.72,54.61,17.71Z"/><path class="cls-2" d="M56.46,66.73H26.58a15.71,15.71,0,0,1-6.39-1.34A107.32,107.32,0,0,0,41.52,81.64,107.31,107.31,0,0,0,62.85,65.39,15.71,15.71,0,0,1,56.46,66.73Z"/><path class="cls-2" d="M58.09,3.78a21.21,21.21,0,0,0-15.48,6.93H56.46c8.25,0,14.94,6.27,14.94,14v28A13.2,13.2,0,0,1,71,56,56,56,0,0,0,77.3,45.15s1.23-2.95,1.78-4.88a39.94,39.94,0,0,0,1.63-10.93C80.71,15.22,70.58,3.78,58.09,3.78Z"/></svg>